# xmcd
#
# Track frame offsets:
#        187
#        22875
#        44042
#        65110
#        88250
#        106425
#        128165
#        144202
#        169362
#        187705
#        210457
#
# Disc length: 3038 seconds
#
# Revision: 0
# Processed by: cddbd v1.5PL3 Copyright (c) Steve Scherf et al.
# Submitted via: ExactAudioCopy v0.95a4
#
DISCID=9a0bdc0b
DTITLE=Glenn Frey - Soul Searchin
DYEAR=1900
DGENRE=Rock
TTITLE0=Livin' Right
TTITLE1=Some Kind Of Blue
TTITLE2=True Love
TTITLE3=Can't Put Out This Fire
TTITLE4=I Did It For Your Love
TTITLE5=Let's Pretend We're Still In Love
TTITLE6=Working Man
TTITLE7=Soul Searchin'
TTITLE8=Two Hearts
TTITLE9=It's Your Life
TTITLE10=It's Cold In Here
EXTD=
EXTT0=
EXTT1=
EXTT2=
EXTT3=
EXTT4=
EXTT5=
EXTT6=
EXTT7=
EXTT8=
EXTT9=
EXTT10=
PLAYORDER=
